M48
; DRILL file {KiCad 7.0.10} date Wed Apr 24 00:51:48 2024
; FORMAT={-:-/ absolute / inch / decimal}
; #@! TF.CreationDate,2024-04-24T00:51:48+02:00
; #@! TF.GenerationSoftware,Kicad,Pcbnew,7.0.10
; #@! TF.FileFunction,Plated,1,2,PTH
FMAT,2
INCH
; #@! TA.AperFunction,Plated,PTH,ViaDrill
T1C0.0157
; #@! TA.AperFunction,Plated,PTH,ComponentDrill
T2C0.0300
; #@! TA.AperFunction,Plated,PTH,ComponentDrill
T3C0.0315
; #@! TA.AperFunction,Plated,PTH,ComponentDrill
T4C0.0374
; #@! TA.AperFunction,Plated,PTH,ComponentDrill
T5C0.0394
; #@! TA.AperFunction,Plated,PTH,ComponentDrill
T6C0.0492
%
G90
G05
T1
X5.0387Y-3.007
X5.138Y-3.4557
X5.1817Y-3.35
X5.2901Y-3.5836
X5.2902Y-3.5432
X5.3093Y-3.016
X5.3182Y-3.311
X5.3377Y-3.157
X5.3379Y-3.1165
X5.3576Y-3.334
X5.3737Y-3.05
X5.3972Y-3.1839
X5.4158Y-3.306
X5.4337Y-4.141
X5.4387Y-3.4133
X5.4937Y-3.155
X5.5089Y-3.4312
X5.5347Y-3.002
X5.5777Y-3.643
X5.5777Y-3.684
X5.5777Y-3.726
X5.5777Y-3.767
X5.6197Y-3.643
X5.6197Y-3.684
X5.6197Y-3.726
X5.6197Y-3.767
X5.6447Y-4.111
X5.6617Y-3.643
X5.6617Y-3.684
X5.6617Y-3.726
X5.6617Y-3.767
X5.6637Y-3.526
X5.6647Y-3.1333
X5.6647Y-3.25
X5.7037Y-3.643
X5.7037Y-3.684
X5.7037Y-3.726
X5.7037Y-3.767
X5.7237Y-3.3208
X5.7887Y-3.8525
X5.8037Y-3.202
X5.8871Y-3.8525
X5.8917Y-3.698
X5.8917Y-3.74
X5.8917Y-3.782
X5.9337Y-3.698
X5.9337Y-3.74
X5.9337Y-3.782
X5.9587Y-4.131
X5.9617Y-3.818
X6.0037Y-3.818
X6.0097Y-4.412
X6.0215Y-3.1943
X6.0457Y-3.818
X6.0877Y-3.259
X6.1447Y-4.525
X6.1447Y-4.569
X6.1867Y-4.525
X6.1867Y-4.569
X6.1897Y-3.777
X6.1897Y-3.818
X6.2247Y-4.193
X6.2247Y-4.236
X6.2252Y-3.1116
X6.2287Y-4.525
X6.2287Y-4.569
X6.2317Y-3.777
X6.2317Y-3.818
X6.2667Y-4.193
X6.2667Y-4.236
X6.2707Y-4.525
X6.2707Y-4.569
X6.2737Y-3.777
X6.2737Y-3.818
X6.3087Y-4.193
X6.3087Y-4.236
X6.3147Y-3.777
X6.3147Y-3.818
X6.3191Y-3.2219
X6.3517Y-4.193
X6.3517Y-4.236
X6.3674Y-3.2927
X6.3685Y-3.4133
X6.3937Y-4.193
X6.3937Y-4.236
X6.4357Y-4.193
X6.4357Y-4.236
X6.5657Y-3.2219
X6.5657Y-3.336
X6.7967Y-3.275
X6.7967Y-3.317
X6.7967Y-3.359
X6.7967Y-3.401
X6.8407Y-3.275
X6.8407Y-3.317
X6.8407Y-3.359
X6.8407Y-3.401
X6.9355Y-3.1116
X6.9991Y-4.2469
X7.0987Y-4.1094
T2
X5.7487Y-4.3489
X5.7487Y-4.6289
X6.3887Y-4.3489
X6.3887Y-4.6289
T3
X5.9587Y-4.3406
X5.9587Y-4.6406
X6.0587Y-4.3406
X6.0587Y-4.6406
X6.1587Y-4.3406
X6.1587Y-4.6406
X6.1673Y-3.576
X6.2587Y-4.3406
X6.2587Y-4.6406
X6.2657Y-3.576
X6.3167Y-2.955
X6.3167Y-3.055
X6.4167Y-2.955
X6.4167Y-3.055
X6.5167Y-2.955
X6.5167Y-3.055
X6.6167Y-2.955
X6.6167Y-3.055
T4
X5.7887Y-4.011
X5.8871Y-4.011
X5.9855Y-4.011
X6.084Y-4.011
X6.1824Y-4.011
X6.4587Y-3.6841
X6.4587Y-3.7826
X6.4587Y-3.881
X6.4587Y-3.9794
X6.7087Y-3.6841
X6.7087Y-3.7826
X6.7087Y-3.881
X6.7087Y-3.9794
T5
X4.6987Y-3.2529
X4.6987Y-3.4891
X4.9363Y-3.69
X5.0347Y-3.69
X5.0487Y-3.3576
X5.0487Y-3.456
X6.0215Y-3.0167
X6.0215Y-3.7253
X6.4587Y-3.2876
X6.4587Y-3.386
X7.0003Y-3.501
X7.0003Y-3.756
X7.0003Y-4.006
X7.0103Y-2.986
X7.0113Y-3.246
X7.0987Y-3.501
X7.0987Y-3.756
X7.0987Y-4.006
X7.1087Y-2.986
X7.1097Y-3.246
T6
X4.7687Y-3.971
X4.7687Y-4.171
X4.7687Y-4.401
X4.7687Y-4.601
M30
